<svg xmlns="http://www.w3.org/2000/svg" width="2560" height="1700"><path style="opacity:.5;fill:#f6f6f6" d="M0 709.883c293.963-35.39 291.039 27.063 422.616 141.56s345.022 108.252 482.446-22.9c137.424-131.152 406.425-93.68 511.686 77.025 105.261 170.705 362.566 214.422 491.219 35.39 128.653-179.032 277.772-222.749 423.968-212.34C2478.131 739.027 2560 988.84 2560 988.84V0H0Z"/><path style="opacity:.5;fill:#f6f6f6" d="M0 816.577c221.892 37.688 393.826-21.246 467.37-174.294 73.544-153.048 134.4-338.975 327.252-368.92 192.852-29.945 315.639 180.589 570.034 139.76 254.395-40.829 321.92-226.129 332.912-413C1509.12.123 0 0 0 0Z"/><circle style="fill:none;stroke:#f6f6f6;stroke-width:10" r="58.5" cy="283.501" cx="1864.5"/><circle style="fill:none;stroke:#dfdfdf;stroke-width:3" r="33.5" cy="727.501" cx="620.5"/><path style="fill:none;stroke:#59ccce" d="M0 467.748c5.599-56.78 44.827-163.899 152.957-189.58 108.13-25.681 166.25 17.572 244.645 62.176C475.997 384.948 581.694 388.19 646.3 305.2c64.607-82.99-21.625-298.71-21.625-298.71M2561.377 310.26c-1.04 62.383-97.732 88.377-159.076 41.59-61.344-46.787-134.123-33.271-174.672 0-40.55 33.27-74.859 90.454-40.549 176.75 34.31 86.296 15.6 128.924-31.584 157.421-47.184 28.497-118.777 50.763-75.592 139.534 43.185 88.77-103.56 87.737-80.22 170.906 23.34 83.169 122.9 21.065 186.41 47.986 63.51 26.921 18.458 109.513 53.91 211.108s155.422 50.087 190.334 119.271c34.912 69.184-35.935 149.787-4.307 216.557 31.628 66.77 134 39.828 134 108.355"/></svg>